<?xml version="1.0" encoding="utf-8"?>
<!-- Generator: Adobe Illustrator 25.2.1, SVG Export Plug-In . SVG Version: 6.00 Build 0)  -->
<svg version="1.1" id="Camada_1" xmlns="http://www.w3.org/2000/svg" xmlns:xlink="http://www.w3.org/1999/xlink" x="0px" y="0px"
	 viewBox="0 0 136 28" style="enable-background:new 0 0 136 28;" xml:space="preserve">
<style type="text/css">
	.st0{fill:url(#SVGID_1_);}
	.st1{fill:#060022;}
	.st2{fill:#FFFFFF;}
</style>
<g>
	
		<linearGradient id="SVGID_1_" gradientUnits="userSpaceOnUse" x1="31.102" y1="15.9407" x2="56.7719" y2="15.9407" gradientTransform="matrix(1 0 0 -1 0 30)">
		<stop  offset="0" style="stop-color:#008A36"/>
		<stop  offset="1" style="stop-color:#03BD42"/>
	</linearGradient>
	<path class="st0" d="M56.8,9.2c0-4.5-3.6-8.1-8.1-8.1c0,0-24,2.3-15.9,16.7c0.4,0.7,1.5,2.5,2,3C51.7,39.8,56.8,9.2,56.8,9.2z"/>
	<g>
		<path class="st1" d="M66.2,6.8c0.4,0.3,0.6,0.8,0.6,1.5s-0.2,1.1-0.6,1.5c-0.4,0.3-1,0.5-1.8,0.5h-0.7v1.5h-1.2V6.4h1.9
			C65.3,6.4,65.9,6.5,66.2,6.8z M65.4,8.9c0.1-0.2,0.2-0.4,0.2-0.7s-0.1-0.5-0.3-0.7c-0.2-0.1-0.5-0.2-0.9-0.2h-0.7v1.8h0.8
			C64.9,9.2,65.2,9.1,65.4,8.9z"/>
		<path class="st1" d="M72.1,8.1c0,0.9-0.3,1.4-1,1.7l1.4,1.9H71L69.8,10H69v1.7h-1.2V6.4h2c0.8,0,1.4,0.1,1.8,0.4
			C71.9,7.1,72.1,7.5,72.1,8.1z M70.7,8.8c0.1-0.1,0.2-0.3,0.2-0.6s-0.1-0.5-0.2-0.6c-0.2-0.1-0.4-0.2-0.8-0.2H69V9h0.9
			C70.2,9,70.5,8.9,70.7,8.8z"/>
		<path class="st1" d="M77.2,6.4v1.1h-2.7v1.1h2.4v1h-2.4v1.1h2.8v1.1h-4V6.4H77.2z"/>
		<path class="st1" d="M80.8,10.7c0.6,0,1.1-0.2,1.4-0.7l0.8,0.8c-0.6,0.7-1.3,1-2.2,1c-0.8,0-1.5-0.3-2-0.8C78.3,10.5,78,9.8,78,9
			s0.3-1.5,0.8-2s1.2-0.8,2-0.8c0.9,0,1.6,0.3,2.2,1L82.3,8c-0.4-0.5-0.9-0.7-1.4-0.7s-0.8,0.1-1.2,0.4c-0.3,0.3-0.5,0.7-0.5,1.2
			s0.2,0.9,0.5,1.2C80,10.5,80.4,10.7,80.8,10.7z"/>
		<path class="st1" d="M84,6.4h1.2v5.4H84V6.4z"/>
		<path class="st1" d="M90.2,6.4v1.1h-2.5v1.2h2.4v1.1h-2.4v2.1h-1.2V6.4H90.2z"/>
		<path class="st1" d="M91.2,6.4h1.2v5.4h-1.2V6.4z"/>
		<path class="st1" d="M96.2,10.7c0.6,0,1.1-0.2,1.4-0.7l0.8,0.8c-0.6,0.7-1.3,1-2.2,1c-0.8,0-1.5-0.3-2-0.8s-0.8-1.2-0.8-2
			s0.3-1.5,0.8-2s1.2-0.8,2-0.8c0.9,0,1.6,0.3,2.2,1L97.7,8c-0.4-0.5-0.9-0.7-1.4-0.7s-0.8,0.1-1.2,0.4c-0.3,0.3-0.5,0.7-0.5,1.2
			s0.2,0.9,0.5,1.2C95.4,10.5,95.8,10.7,96.2,10.7z"/>
		<path class="st1" d="M103.2,11.7l-0.5-1.2h-2.3l-0.5,1.2h-1.3l2.3-5.4h1.2l2.3,5.4H103.2z M101.5,8l-0.7,1.6h1.3L101.5,8z"/>
		<path class="st1" d="M66.9,20.8c1,0,1.7-0.4,2.3-1.1l1.2,1.3c-1,1.1-2.1,1.7-3.5,1.7c-1.3,0-2.4-0.4-3.3-1.3
			c-0.9-0.8-1.3-1.9-1.3-3.2c0-1.3,0.4-2.4,1.3-3.2c0.9-0.9,2-1.3,3.2-1.3c1.4,0,2.6,0.5,3.6,1.6l-1.2,1.4c-0.6-0.8-1.4-1.1-2.3-1.1
			c-0.7,0-1.4,0.2-1.9,0.7c-0.5,0.5-0.8,1.1-0.8,1.9s0.2,1.5,0.7,1.9C65.6,20.5,66.2,20.8,66.9,20.8z"/>
		<path class="st1" d="M78.3,13.8v1.7H74v1.8h3.9V19H74v1.8h4.5v1.7H72v-8.7H78.3z"/>
		<path class="st1" d="M87.2,16.7c0,1.4-0.6,2.3-1.6,2.7l2.2,3.1h-2.4l-1.9-2.8h-1.3v2.8h-1.9v-8.7h3.3c1.3,0,2.3,0.2,2.9,0.7
			C86.9,14.9,87.2,15.7,87.2,16.7z M84.8,17.7c0.2-0.2,0.4-0.6,0.4-1c0-0.5-0.1-0.8-0.4-1c-0.2-0.2-0.7-0.3-1.3-0.3H82V18h1.4
			C84.1,18,84.6,17.9,84.8,17.7z"/>
		<path class="st1" d="M92.7,15.5v7h-1.9v-7h-2.5v-1.7h6.8v1.7H92.7z"/>
		<path class="st1" d="M103.6,21.3c-0.9,0.9-2,1.3-3.2,1.3c-1.3,0-2.4-0.4-3.2-1.3c-0.9-0.9-1.3-1.9-1.3-3.2c0-1.3,0.4-2.3,1.3-3.2
			s2-1.3,3.2-1.3c1.3,0,2.4,0.4,3.2,1.3c0.9,0.9,1.3,1.9,1.3,3.2C104.9,19.4,104.5,20.4,103.6,21.3z M102.9,18.1
			c0-0.8-0.2-1.4-0.7-2c-0.5-0.5-1.1-0.8-1.8-0.8c-0.7,0-1.3,0.3-1.8,0.8s-0.7,1.2-0.7,2s0.2,1.4,0.7,2c0.5,0.5,1.1,0.8,1.8,0.8
			c0.7,0,1.3-0.3,1.8-0.8C102.7,19.5,102.9,18.9,102.9,18.1z"/>
	</g>
	<g>
		<path class="st2" d="M40.2,18.9l1.8,3.3c0.4,0.7,1.4,0.7,1.8,0l8.6-15c0.4-0.6-0.1-1.4-0.8-1.5l-3.8-0.3c-0.4,0-0.8,0.2-1,0.5
			l-6.6,12C40,18.2,40,18.6,40.2,18.9z"/>
		<path class="st2" d="M39.6,16.2c-0.2,0.4-0.7,0.4-0.9,0l-2-3.6c-0.1-0.1,0-0.3,0.2-0.3l0,0h3.9c0.4,0,0.6,0.4,0.5,0.8L39.6,16.2z"
			/>
	</g>
</g>
</svg>
