<?xml version="1.0" encoding="utf-8"?>
<!-- Generator: Adobe Illustrator 25.2.1, SVG Export Plug-In . SVG Version: 6.00 Build 0)  -->
<svg version="1.1" id="Camada_1" xmlns="http://www.w3.org/2000/svg" xmlns:xlink="http://www.w3.org/1999/xlink" x="0px" y="0px"
	 viewBox="0 0 136 28" style="enable-background:new 0 0 136 28;" xml:space="preserve">
<style type="text/css">
	.st0{fill:#FFFFFF;}
</style>
<g>
	<g>
		<path class="st0" d="M66.2,6.7c0.4,0.3,0.6,0.8,0.6,1.5s-0.2,1.2-0.6,1.5s-1,0.5-1.8,0.5h-0.7v1.5h-1.2V6.2h1.9
			C65.2,6.2,65.8,6.4,66.2,6.7z M65.3,8.9c0.1-0.2,0.2-0.4,0.2-0.7s-0.1-0.5-0.3-0.7c-0.2-0.1-0.5-0.2-0.9-0.2h-0.7v1.8h0.8
			C64.9,9.1,65.2,9,65.3,8.9z"/>
		<path class="st0" d="M72.2,8c0,0.9-0.3,1.4-1,1.7l1.4,2H71L69.8,10H69v1.7h-1.2V6.2h2.1c0.9,0,1.5,0.1,1.8,0.4
			C72,6.9,72.2,7.4,72.2,8z M70.7,8.7c0.2-0.1,0.2-0.4,0.2-0.6s-0.1-0.5-0.2-0.6c-0.2-0.1-0.4-0.2-0.8-0.2H69v1.6h0.9
			C70.3,8.9,70.6,8.8,70.7,8.7z"/>
		<path class="st0" d="M77.4,6.2v1.1h-2.7v1.1h2.4v1h-2.4v1.1h2.8v1.1h-4V6.2H77.4z"/>
		<path class="st0" d="M81.1,10.6c0.6,0,1.1-0.2,1.5-0.7l0.8,0.8c-0.6,0.7-1.4,1-2.2,1c-0.8,0-1.5-0.3-2.1-0.8
			c-0.5-0.5-0.8-1.2-0.8-2s0.3-1.5,0.8-2c0.6-0.5,1.2-0.8,2-0.8c0.9,0,1.6,0.3,2.3,1L82.6,8c-0.4-0.5-0.9-0.7-1.4-0.7
			S80.3,7.5,80,7.7c-0.3,0.3-0.5,0.7-0.5,1.2s0.2,0.9,0.5,1.2C80.2,10.5,80.6,10.6,81.1,10.6z"/>
		<path class="st0" d="M84.3,6.2h1.2v5.5h-1.2V6.2z"/>
		<path class="st0" d="M90.6,6.2v1.1h-2.5v1.2h2.4v1.1h-2.4v2.1h-1.2V6.2H90.6z"/>
		<path class="st0" d="M91.6,6.2h1.2v5.5h-1.2V6.2z"/>
		<path class="st0" d="M96.7,10.6c0.6,0,1.1-0.2,1.5-0.7l0.8,0.8c-0.6,0.7-1.4,1-2.2,1c-0.8,0-1.5-0.3-2.1-0.8
			c-0.5-0.5-0.8-1.2-0.8-2s0.3-1.5,0.8-2c0.6-0.5,1.2-0.8,2-0.8c0.9,0,1.6,0.3,2.3,1L98.2,8c-0.4-0.5-0.9-0.7-1.4-0.7
			s-0.9,0.2-1.2,0.4c-0.3,0.3-0.5,0.7-0.5,1.2s0.2,0.9,0.5,1.2C95.9,10.5,96.3,10.6,96.7,10.6z"/>
		<path class="st0" d="M103.8,11.7l-0.5-1.2H101l-0.5,1.2h-1.3l2.4-5.5h1.2l2.4,5.5H103.8z M102.1,7.8l-0.7,1.6h1.4L102.1,7.8z"/>
		<path class="st0" d="M66.9,20.9c1,0,1.8-0.4,2.4-1.1l1.3,1.3c-1,1.1-2.2,1.7-3.5,1.7c-1.4,0-2.5-0.4-3.4-1.3s-1.3-1.9-1.3-3.2
			c0-1.3,0.4-2.4,1.3-3.3c0.9-0.9,2-1.3,3.3-1.3c1.4,0,2.7,0.6,3.6,1.7l-1.2,1.4c-0.6-0.8-1.4-1.2-2.3-1.2c-0.7,0-1.4,0.2-1.9,0.7
			s-0.8,1.1-0.8,2c0,0.8,0.2,1.5,0.7,2C65.6,20.6,66.2,20.9,66.9,20.9z"/>
		<path class="st0" d="M78.5,13.8v1.8h-4.4v1.8H78v1.7h-3.9v1.8h4.5v1.7h-6.5v-8.8H78.5z"/>
		<path class="st0" d="M87.5,16.7c0,1.4-0.6,2.3-1.7,2.7l2.2,3.2h-2.4l-2-2.8h-1.4v2.8h-2v-8.8h3.3c1.4,0,2.3,0.2,2.9,0.7
			C87.2,15,87.5,15.7,87.5,16.7z M85.1,17.8c0.2-0.2,0.4-0.6,0.4-1c0-0.5-0.1-0.8-0.4-1s-0.7-0.3-1.3-0.3h-1.5v2.6h1.4
			C84.4,18.1,84.9,18,85.1,17.8z"/>
		<path class="st0" d="M93.1,15.5v7.1h-2v-7.1h-2.5v-1.7h7v1.7H93.1z"/>
		<path class="st0" d="M104.2,21.4c-0.9,0.9-2,1.3-3.3,1.3s-2.4-0.4-3.3-1.3s-1.3-2-1.3-3.2c0-1.3,0.4-2.4,1.3-3.2
			c0.9-0.9,2-1.3,3.3-1.3s2.4,0.4,3.3,1.3c0.9,0.9,1.3,2,1.3,3.2C105.5,19.5,105.1,20.5,104.2,21.4z M103.5,18.2
			c0-0.8-0.3-1.5-0.8-2c-0.5-0.6-1.1-0.8-1.9-0.8c-0.7,0-1.4,0.3-1.9,0.8c-0.5,0.6-0.8,1.2-0.8,2s0.3,1.5,0.8,2
			c0.5,0.6,1.1,0.8,1.9,0.8c0.7,0,1.4-0.3,1.9-0.8C103.3,19.6,103.5,19,103.5,18.2z"/>
	</g>
	<path class="st0" d="M48.3,0.8c0,0-24.4,2.4-16.1,16.9c0.4,0.7,1.6,2.5,2,3C51.4,40.2,56.6,9.1,56.6,9.1
		C56.6,4.5,52.9,0.8,48.3,0.8z M38.2,16.3l-2-3.7c-0.1-0.1,0-0.3,0.2-0.3l0,0h4c0.4,0,0.7,0.4,0.5,0.8l-1.7,3.2
		C38.9,16.6,38.4,16.6,38.2,16.3z M52.1,7l-8.7,15.3C43,23,42,23,41.6,22.3L39.8,19c-0.2-0.3-0.2-0.7,0-1l6.7-12.2
		c0.2-0.4,0.6-0.6,1-0.5l3.8,0.3C52,5.6,52.4,6.4,52.1,7z"/>
</g>
</svg>
